<mxfile host="app.diagrams.net" modified="2024-06-10T22:27:40.911Z" agent="Mozilla/5.0 (Windows NT 10.0; Win64; x64) AppleWebKit/537.36 (KHTML, like Gecko) Chrome/123.0.0.0 Safari/537.36 OPR/109.0.0.0" etag="sBO7yiZG8NiPDPGQad_b" version="24.4.10" type="device">
  <diagram name="Page-1" id="g3O2ZULAyHyjXb7f7m-m">
    <mxGraphModel dx="1009" dy="542" grid="1" gridSize="10" guides="1" tooltips="1" connect="1" arrows="1" fold="1" page="1" pageScale="1" pageWidth="850" pageHeight="1100" math="0" shadow="0">
      <root>
        <mxCell id="0" />
        <mxCell id="1" parent="0" />
        <mxCell id="KrUhF1K8DrwEvhvdqPnf-1" value="" style="whiteSpace=wrap;html=1;aspect=fixed;" parent="1" vertex="1">
          <mxGeometry x="100" y="320" width="80" height="80" as="geometry" />
        </mxCell>
        <mxCell id="KrUhF1K8DrwEvhvdqPnf-4" value="" style="whiteSpace=wrap;html=1;aspect=fixed;" parent="1" vertex="1">
          <mxGeometry x="280" y="320" width="80" height="80" as="geometry" />
        </mxCell>
        <mxCell id="KrUhF1K8DrwEvhvdqPnf-5" value="" style="whiteSpace=wrap;html=1;aspect=fixed;" parent="1" vertex="1">
          <mxGeometry x="390" y="330" width="60" height="60" as="geometry" />
        </mxCell>
        <mxCell id="KrUhF1K8DrwEvhvdqPnf-6" value="" style="rounded=0;whiteSpace=wrap;html=1;" parent="1" vertex="1">
          <mxGeometry x="490" y="330" width="60" height="60" as="geometry" />
        </mxCell>
        <mxCell id="KrUhF1K8DrwEvhvdqPnf-7" value="" style="endArrow=classic;html=1;rounded=0;exitX=1;exitY=0.6;exitDx=0;exitDy=0;exitPerimeter=0;" parent="1" edge="1">
          <mxGeometry width="50" height="50" relative="1" as="geometry">
            <mxPoint x="180" y="359.44" as="sourcePoint" />
            <mxPoint x="280" y="360" as="targetPoint" />
          </mxGeometry>
        </mxCell>
        <mxCell id="KrUhF1K8DrwEvhvdqPnf-9" value="" style="endArrow=classic;html=1;rounded=0;entryX=0;entryY=0.5;entryDx=0;entryDy=0;exitX=1;exitY=0.5;exitDx=0;exitDy=0;" parent="1" source="KrUhF1K8DrwEvhvdqPnf-4" target="KrUhF1K8DrwEvhvdqPnf-5" edge="1">
          <mxGeometry width="50" height="50" relative="1" as="geometry">
            <mxPoint x="360" y="361.42857142857133" as="sourcePoint" />
            <mxPoint x="270" y="310" as="targetPoint" />
          </mxGeometry>
        </mxCell>
        <mxCell id="KrUhF1K8DrwEvhvdqPnf-12" value="" style="curved=1;endArrow=classic;html=1;rounded=0;exitX=0.5;exitY=0;exitDx=0;exitDy=0;entryX=0.5;entryY=0;entryDx=0;entryDy=0;" parent="1" source="KrUhF1K8DrwEvhvdqPnf-4" target="KrUhF1K8DrwEvhvdqPnf-6" edge="1">
          <mxGeometry width="50" height="50" relative="1" as="geometry">
            <mxPoint x="440" y="450" as="sourcePoint" />
            <mxPoint x="490" y="400" as="targetPoint" />
            <Array as="points">
              <mxPoint x="350" y="290" />
              <mxPoint x="470" y="290" />
            </Array>
          </mxGeometry>
        </mxCell>
        <mxCell id="KrUhF1K8DrwEvhvdqPnf-13" value="User input" style="text;html=1;align=center;verticalAlign=middle;resizable=0;points=[];autosize=1;strokeColor=none;fillColor=none;" parent="1" vertex="1">
          <mxGeometry x="100" y="345" width="80" height="30" as="geometry" />
        </mxCell>
        <mxCell id="KrUhF1K8DrwEvhvdqPnf-14" value="General&lt;div&gt;description&lt;/div&gt;" style="text;html=1;align=center;verticalAlign=middle;resizable=0;points=[];autosize=1;strokeColor=none;fillColor=none;" parent="1" vertex="1">
          <mxGeometry x="280" y="340" width="80" height="40" as="geometry" />
        </mxCell>
        <mxCell id="KrUhF1K8DrwEvhvdqPnf-15" value="image&amp;nbsp;&lt;div&gt;description&lt;/div&gt;" style="text;html=1;align=center;verticalAlign=middle;resizable=0;points=[];autosize=1;strokeColor=none;fillColor=none;" parent="1" vertex="1">
          <mxGeometry x="380" y="340" width="80" height="40" as="geometry" />
        </mxCell>
        <mxCell id="KrUhF1K8DrwEvhvdqPnf-16" value="sound&lt;div&gt;description&lt;/div&gt;" style="text;html=1;align=center;verticalAlign=middle;resizable=0;points=[];autosize=1;strokeColor=none;fillColor=none;" parent="1" vertex="1">
          <mxGeometry x="480" y="340" width="80" height="40" as="geometry" />
        </mxCell>
        <mxCell id="KrUhF1K8DrwEvhvdqPnf-17" value="" style="rounded=0;whiteSpace=wrap;html=1;" parent="1" vertex="1">
          <mxGeometry x="280" y="630" width="300" height="120" as="geometry" />
        </mxCell>
        <mxCell id="KrUhF1K8DrwEvhvdqPnf-18" value="" style="endArrow=classic;html=1;rounded=0;exitX=0.5;exitY=1;exitDx=0;exitDy=0;entryX=0.131;entryY=0.008;entryDx=0;entryDy=0;entryPerimeter=0;" parent="1" source="KrUhF1K8DrwEvhvdqPnf-4" target="KrUhF1K8DrwEvhvdqPnf-17" edge="1">
          <mxGeometry width="50" height="50" relative="1" as="geometry">
            <mxPoint x="310" y="450" as="sourcePoint" />
            <mxPoint x="360" y="400" as="targetPoint" />
          </mxGeometry>
        </mxCell>
        <mxCell id="KrUhF1K8DrwEvhvdqPnf-19" value="" style="rounded=0;whiteSpace=wrap;html=1;" parent="1" vertex="1">
          <mxGeometry x="380" y="460" width="80" height="60" as="geometry" />
        </mxCell>
        <mxCell id="KrUhF1K8DrwEvhvdqPnf-20" value="image&lt;div&gt;generator&lt;/div&gt;" style="text;html=1;align=center;verticalAlign=middle;resizable=0;points=[];autosize=1;strokeColor=none;fillColor=none;" parent="1" vertex="1">
          <mxGeometry x="385" y="470" width="70" height="40" as="geometry" />
        </mxCell>
        <mxCell id="KrUhF1K8DrwEvhvdqPnf-21" value="" style="rounded=0;whiteSpace=wrap;html=1;" parent="1" vertex="1">
          <mxGeometry x="480" y="460" width="80" height="60" as="geometry" />
        </mxCell>
        <mxCell id="KrUhF1K8DrwEvhvdqPnf-22" value="sound&lt;div&gt;generator&lt;/div&gt;" style="text;html=1;align=center;verticalAlign=middle;resizable=0;points=[];autosize=1;strokeColor=none;fillColor=none;" parent="1" vertex="1">
          <mxGeometry x="485" y="470" width="70" height="40" as="geometry" />
        </mxCell>
        <mxCell id="KrUhF1K8DrwEvhvdqPnf-23" value="" style="endArrow=classic;html=1;rounded=0;exitX=0.5;exitY=1;exitDx=0;exitDy=0;entryX=0.5;entryY=0;entryDx=0;entryDy=0;" parent="1" source="KrUhF1K8DrwEvhvdqPnf-5" target="KrUhF1K8DrwEvhvdqPnf-19" edge="1">
          <mxGeometry width="50" height="50" relative="1" as="geometry">
            <mxPoint x="460" y="560" as="sourcePoint" />
            <mxPoint x="510" y="510" as="targetPoint" />
          </mxGeometry>
        </mxCell>
        <mxCell id="KrUhF1K8DrwEvhvdqPnf-24" value="" style="endArrow=classic;html=1;rounded=0;exitX=0.5;exitY=1;exitDx=0;exitDy=0;" parent="1" source="KrUhF1K8DrwEvhvdqPnf-21" edge="1">
          <mxGeometry width="50" height="50" relative="1" as="geometry">
            <mxPoint x="460" y="560" as="sourcePoint" />
            <mxPoint x="520" y="630" as="targetPoint" />
          </mxGeometry>
        </mxCell>
        <mxCell id="KrUhF1K8DrwEvhvdqPnf-25" value="" style="endArrow=classic;html=1;rounded=0;exitX=0.5;exitY=1;exitDx=0;exitDy=0;entryX=0.5;entryY=0;entryDx=0;entryDy=0;" parent="1" source="KrUhF1K8DrwEvhvdqPnf-6" target="KrUhF1K8DrwEvhvdqPnf-21" edge="1">
          <mxGeometry width="50" height="50" relative="1" as="geometry">
            <mxPoint x="460" y="560" as="sourcePoint" />
            <mxPoint x="510" y="510" as="targetPoint" />
          </mxGeometry>
        </mxCell>
        <mxCell id="KrUhF1K8DrwEvhvdqPnf-26" value="" style="endArrow=classic;html=1;rounded=0;exitX=0.5;exitY=1;exitDx=0;exitDy=0;" parent="1" source="KrUhF1K8DrwEvhvdqPnf-19" edge="1">
          <mxGeometry width="50" height="50" relative="1" as="geometry">
            <mxPoint x="460" y="560" as="sourcePoint" />
            <mxPoint x="420" y="630" as="targetPoint" />
          </mxGeometry>
        </mxCell>
        <mxCell id="KrUhF1K8DrwEvhvdqPnf-27" value="&lt;font style=&quot;font-size: 18px;&quot;&gt;AI dex interface&lt;/font&gt;" style="text;html=1;align=center;verticalAlign=middle;resizable=0;points=[];autosize=1;strokeColor=none;fillColor=none;" parent="1" vertex="1">
          <mxGeometry x="350" y="680" width="150" height="40" as="geometry" />
        </mxCell>
        <mxCell id="KrUhF1K8DrwEvhvdqPnf-28" value="" style="endArrow=none;dashed=1;html=1;rounded=0;" parent="1" edge="1">
          <mxGeometry width="50" height="50" relative="1" as="geometry">
            <mxPoint x="240" y="440" as="sourcePoint" />
            <mxPoint x="600" y="440" as="targetPoint" />
          </mxGeometry>
        </mxCell>
        <mxCell id="KrUhF1K8DrwEvhvdqPnf-29" value="" style="endArrow=none;dashed=1;html=1;rounded=0;" parent="1" edge="1">
          <mxGeometry width="50" height="50" relative="1" as="geometry">
            <mxPoint x="240" y="240" as="sourcePoint" />
            <mxPoint x="600" y="240" as="targetPoint" />
          </mxGeometry>
        </mxCell>
        <mxCell id="KrUhF1K8DrwEvhvdqPnf-30" value="" style="endArrow=none;dashed=1;html=1;rounded=0;" parent="1" edge="1">
          <mxGeometry width="50" height="50" relative="1" as="geometry">
            <mxPoint x="240" y="240" as="sourcePoint" />
            <mxPoint x="240" y="440" as="targetPoint" />
          </mxGeometry>
        </mxCell>
        <mxCell id="KrUhF1K8DrwEvhvdqPnf-31" value="" style="endArrow=none;dashed=1;html=1;rounded=0;" parent="1" edge="1">
          <mxGeometry width="50" height="50" relative="1" as="geometry">
            <mxPoint x="600" y="240" as="sourcePoint" />
            <mxPoint x="600" y="440" as="targetPoint" />
          </mxGeometry>
        </mxCell>
        <mxCell id="KrUhF1K8DrwEvhvdqPnf-32" value="GPT model (sigurd main)" style="text;html=1;align=center;verticalAlign=middle;whiteSpace=wrap;rounded=0;" parent="1" vertex="1">
          <mxGeometry x="240" y="210" width="160" height="30" as="geometry" />
        </mxCell>
        <mxCell id="KrUhF1K8DrwEvhvdqPnf-33" value="&lt;font style=&quot;font-size: 9px;&quot;&gt;AI image&lt;/font&gt;&lt;div&gt;&lt;font style=&quot;font-size: 9px;&quot;&gt;(Tobias main)&lt;/font&gt;&lt;/div&gt;" style="text;html=1;align=center;verticalAlign=middle;resizable=0;points=[];autosize=1;strokeColor=none;fillColor=none;" parent="1" vertex="1">
          <mxGeometry x="345" y="520" width="80" height="40" as="geometry" />
        </mxCell>
        <mxCell id="KrUhF1K8DrwEvhvdqPnf-34" value="&lt;font style=&quot;font-size: 9px;&quot;&gt;AI sound&lt;/font&gt;&lt;div&gt;&lt;font style=&quot;font-size: 9px;&quot;&gt;(Salo main)&lt;/font&gt;&lt;/div&gt;" style="text;html=1;align=center;verticalAlign=middle;resizable=0;points=[];autosize=1;strokeColor=none;fillColor=none;" parent="1" vertex="1">
          <mxGeometry x="455" y="520" width="70" height="40" as="geometry" />
        </mxCell>
      </root>
    </mxGraphModel>
  </diagram>
</mxfile>
